<svg xmlns="http://www.w3.org/2000/svg" xmlns:xlink="http://www.w3.org/1999/xlink" width="2048" zoomAndPan="magnify" viewBox="0 0 1536 1023.749952" height="1365" preserveAspectRatio="xMidYMid meet" version="1.2"><defs><clipPath id="73e93ce51a"><path d="M 613 391 L 937.347656 391 L 937.347656 716.449219 L 613 716.449219 Z M 613 391 "/></clipPath><clipPath id="b38aafa131"><path d="M 556.78125 307.050781 L 628 307.050781 L 628 378 L 556.78125 378 Z M 556.78125 307.050781 "/></clipPath><clipPath id="d55a6c6210"><path d="M 556.78125 476 L 628 476 L 628 548 L 556.78125 548 Z M 556.78125 476 "/></clipPath><clipPath id="bb9ace10ef"><path d="M 658 545 L 913 545 L 913 676.640625 L 658 676.640625 Z M 658 545 "/></clipPath><clipPath id="d1cda7a085"><path d="M 647.457031 427.703125 L 902 427.703125 L 902 556 L 647.457031 556 Z M 647.457031 427.703125 "/></clipPath><clipPath id="e4a196ffac"><path d="M 732.296875 518 L 835 518 L 835 586.765625 L 732.296875 586.765625 Z M 732.296875 518 "/></clipPath><clipPath id="59635fe60f"><path d="M 321.117188 71.234375 L 628.167969 71.234375 L 628.167969 378.285156 L 321.117188 378.285156 Z M 321.117188 71.234375 "/></clipPath></defs><g id="3c11ea391c"><g clip-rule="nonzero" clip-path="url(#73e93ce51a)"><path style=" stroke:none;fill-rule:nonzero;fill:#e9e8e7;fill-opacity:1;" d="M 658.914062 441.164062 C 630.648438 470.390625 613.238281 510.207031 613.238281 554.101562 C 613.238281 643.769531 685.855469 716.449219 775.441406 716.449219 C 865.027344 716.449219 937.644531 643.769531 937.644531 554.101562 C 937.644531 464.433594 865.027344 391.753906 775.441406 391.753906 C 750.152344 391.753906 726.242188 397.542969 704.917969 407.855469 "/></g><path style=" stroke:none;fill-rule:nonzero;fill:#f5f6f5;fill-opacity:1;" d="M 683.761719 554.101562 C 683.761719 604.78125 724.808594 645.863281 775.441406 645.863281 C 826.074219 645.863281 867.121094 604.78125 867.121094 554.101562 C 867.121094 503.421875 826.074219 462.339844 775.441406 462.339844 C 724.808594 462.339844 683.761719 503.421875 683.761719 554.101562 "/><path style=" stroke:none;fill-rule:nonzero;fill:#ffffff;fill-opacity:1;" d="M 711.972656 561.160156 C 715.855469 561.160156 719.023438 557.988281 719.023438 554.101562 C 719.023438 522.972656 744.339844 497.632812 775.441406 497.632812 C 779.328125 497.632812 782.496094 494.460938 782.496094 490.574219 C 782.496094 486.6875 779.328125 483.515625 775.441406 483.515625 C 736.542969 483.515625 704.917969 515.167969 704.917969 554.101562 C 704.917969 557.988281 708.085938 561.160156 711.972656 561.160156 "/><g clip-rule="nonzero" clip-path="url(#b38aafa131)"><path style=" stroke:none;fill-rule:nonzero;fill:#4fabe4;fill-opacity:1;" d="M 556.820312 342.34375 C 576.296875 342.34375 592.082031 326.542969 592.082031 307.050781 C 592.082031 326.542969 607.867188 342.34375 627.34375 342.34375 C 607.867188 342.34375 592.082031 358.140625 592.082031 377.636719 C 592.082031 358.140625 576.296875 342.34375 556.820312 342.34375 "/></g><g clip-rule="nonzero" clip-path="url(#d55a6c6210)"><path style=" stroke:none;fill-rule:nonzero;fill:#4fabe4;fill-opacity:1;" d="M 556.820312 511.75 C 576.296875 511.75 592.082031 495.949219 592.082031 476.457031 C 592.082031 495.949219 607.867188 511.75 627.34375 511.75 C 607.867188 511.75 592.082031 527.550781 592.082031 547.042969 C 592.082031 527.550781 576.296875 511.75 556.820312 511.75 "/></g><path style=" stroke:none;fill-rule:nonzero;fill:#4fabe4;fill-opacity:1;" d="M 606.1875 419.988281 L 613.238281 419.988281 C 648.28125 419.988281 676.710938 391.53125 676.710938 356.460938 L 676.710938 349.402344 L 676.710938 356.460938 C 676.710938 391.53125 705.140625 419.988281 740.179688 419.988281 L 747.234375 419.988281 L 740.179688 419.988281 C 705.140625 419.988281 676.710938 448.441406 676.710938 483.515625 L 676.710938 490.574219 L 676.710938 483.515625 C 676.710938 448.441406 648.28125 419.988281 613.238281 419.988281 L 606.1875 419.988281 "/><g clip-rule="nonzero" clip-path="url(#bb9ace10ef)"><path style=" stroke:none;fill-rule:nonzero;fill:#4fabe4;fill-opacity:1;" d="M 897.046875 595.011719 C 901.730469 582.195312 904.304688 568.558594 904.566406 554.542969 C 904.574219 554.175781 904.542969 553.816406 904.492188 553.464844 L 904.785156 552.140625 C 904.785156 552.140625 919.398438 575.210938 897.046875 595.011719 Z M 899.367188 545.316406 C 889.003906 543.003906 877.824219 553.5625 874.394531 568.90625 C 871.914062 580.027344 874.1875 590.605469 879.574219 596.46875 C 879.582031 596.476562 879.585938 596.484375 879.59375 596.492188 C 880.789062 597.804688 881 599.738281 880.210938 601.324219 C 861.890625 638.238281 823.699219 663.804688 780.113281 663.804688 C 727.449219 663.804688 681.488281 626.4375 670.820312 574.957031 C 670.101562 571.480469 666.699219 569.246094 663.21875 569.964844 C 659.742188 570.683594 657.507812 574.089844 658.226562 577.566406 C 663.949219 605.175781 679.15625 630.308594 701.042969 648.332031 C 711.949219 657.308594 724.175781 664.308594 737.386719 669.136719 C 751.054688 674.132812 765.429688 676.664062 780.113281 676.664062 C 812.953125 676.664062 843.933594 663.992188 867.355469 640.980469 C 879.230469 629.308594 888.476562 615.644531 894.789062 600.734375 C 894.917969 600.429688 895.15625 600.175781 895.46875 600.050781 C 895.46875 600.050781 895.46875 600.050781 895.472656 600.046875 C 902.859375 597.050781 909.4375 588.433594 911.929688 577.289062 C 915.355469 561.945312 909.730469 547.628906 899.367188 545.316406 "/></g><g clip-rule="nonzero" clip-path="url(#d1cda7a085)"><path style=" stroke:none;fill-rule:nonzero;fill:#4fabe4;fill-opacity:1;" d="M 901.398438 524.078125 C 895.175781 497.117188 879.808594 472.652344 858.136719 455.195312 C 847.3125 446.476562 835.21875 439.6875 822.195312 435.007812 C 808.71875 430.171875 794.558594 427.714844 780.113281 427.714844 C 747.328125 427.714844 716.378906 440.355469 692.972656 463.304688 C 688.144531 468.039062 683.753906 473.105469 679.816406 478.441406 L 679.402344 479.007812 C 679.300781 479.148438 679.199219 479.289062 679.09375 479.429688 L 670.511719 491.207031 C 668.664062 493.746094 666.226562 495.808594 663.371094 497.121094 C 663.347656 497.128906 663.328125 497.140625 663.304688 497.152344 C 657.613281 499.738281 656.679688 509.382812 655.472656 514.550781 C 654.003906 520.839844 652.53125 527.125 651.0625 533.414062 C 649.921875 538.28125 648.785156 543.144531 647.648438 548.011719 C 647.601562 548.222656 647.726562 548.4375 647.9375 548.492188 L 650.480469 549.171875 C 650.691406 549.230469 650.910156 549.109375 650.972656 548.898438 L 661.308594 513.925781 C 661.488281 513.320312 662.050781 512.953125 662.582031 513.09375 C 663.109375 513.234375 663.414062 513.835938 663.265625 514.449219 L 654.78125 549.914062 C 654.730469 550.125 654.859375 550.34375 655.070312 550.398438 L 656.230469 550.710938 C 656.441406 550.765625 656.660156 550.644531 656.722656 550.433594 L 667.058594 515.460938 C 667.238281 514.855469 667.800781 514.488281 668.328125 514.628906 C 668.859375 514.773438 669.164062 515.371094 669.019531 515.984375 L 660.53125 551.449219 C 660.480469 551.664062 660.609375 551.878906 660.820312 551.933594 C 660.820312 551.933594 661.328125 552.070312 661.328125 552.070312 L 661.980469 552.246094 C 662.191406 552.300781 662.410156 552.179688 662.472656 551.96875 L 672.808594 516.996094 C 672.988281 516.390625 673.550781 516.023438 674.082031 516.164062 C 674.609375 516.308594 674.914062 516.90625 674.765625 517.519531 L 666.28125 552.988281 C 666.230469 553.199219 666.359375 553.414062 666.570312 553.472656 L 667.730469 553.78125 C 667.941406 553.839844 668.160156 553.714844 668.222656 553.503906 L 678.558594 518.535156 C 678.734375 517.929688 679.300781 517.5625 679.828125 517.703125 C 680.359375 517.84375 680.664062 518.445312 680.515625 519.054688 L 672.027344 554.523438 C 671.976562 554.734375 672.105469 554.949219 672.320312 555.007812 L 674.714844 555.648438 C 674.925781 555.703125 675.140625 555.582031 675.207031 555.371094 C 676.644531 550.589844 678.089844 545.804688 679.527344 541.023438 C 681.390625 534.835938 683.253906 528.65625 685.117188 522.472656 C 686.710938 517.183594 689.011719 511.675781 687.84375 506.082031 C 687.523438 504.550781 686.851562 503.132812 686.265625 501.691406 C 686.265625 501.691406 686.25 501.652344 686.222656 501.578125 C 685.070312 498.410156 685.210938 494.902344 686.640625 491.847656 C 686.851562 491.40625 687.085938 490.945312 687.351562 490.464844 C 707.480469 460.464844 741.722656 440.578125 780.113281 440.578125 C 832.402344 440.578125 877.125 476.105469 888.867188 526.976562 C 889.667969 530.433594 893.121094 532.59375 896.582031 531.792969 C 900.039062 530.996094 902.199219 527.539062 901.398438 524.078125 "/></g><g clip-rule="nonzero" clip-path="url(#e4a196ffac)"><path style=" stroke:none;fill-rule:nonzero;fill:#4fabe4;fill-opacity:1;" d="M 813.53125 539.242188 C 813.488281 538.8125 813.441406 538.386719 813.375 537.957031 C 811.789062 528.332031 802.710938 521.8125 793.089844 523.398438 C 789.203125 524.035156 785.828125 525.894531 783.28125 528.519531 C 778.605469 521.671875 770.242188 517.765625 761.519531 519.199219 C 749.519531 521.171875 741.390625 532.496094 743.363281 544.5 C 743.507812 545.375 743.707031 546.234375 743.949219 547.0625 C 737.09375 550.511719 732.386719 557.605469 732.386719 565.800781 C 732.386719 577.378906 741.777344 586.765625 753.351562 586.765625 L 777.574219 586.765625 L 777.574219 569.4375 L 769.234375 569.4375 L 783.589844 548.585938 L 797.945312 569.4375 L 789.605469 569.4375 L 789.605469 586.765625 L 813.679688 586.765625 L 813.679688 586.605469 C 825.5625 585.257812 834.792969 575.179688 834.792969 562.9375 C 834.792969 550.640625 825.480469 540.527344 813.53125 539.242188 "/></g><path style=" stroke:none;fill-rule:nonzero;fill:#ffffff;fill-opacity:1;" d="M 756.878906 534.078125 C 754.203125 537.878906 750.417969 539.824219 748.421875 538.421875 C 746.425781 537.015625 746.972656 532.792969 749.648438 528.992188 C 752.324219 525.1875 756.113281 523.246094 758.105469 524.648438 C 760.105469 526.050781 759.554688 530.277344 756.878906 534.078125 "/><g clip-rule="nonzero" clip-path="url(#59635fe60f)"><path style=" stroke:none;fill-rule:nonzero;fill:#ffffff;fill-opacity:1;" d="M 321.117188 71.234375 L 628.167969 71.234375 L 628.167969 378.285156 L 321.117188 378.285156 Z M 321.117188 71.234375 "/></g></g></svg>