<svg xmlns="http://www.w3.org/2000/svg" xmlns:xlink="http://www.w3.org/1999/xlink" width="2048" zoomAndPan="magnify" viewBox="0 0 1536 1023.749952" height="1365" preserveAspectRatio="xMidYMid meet" version="1.2"><defs><clipPath id="ef6d1dcf21"><path d="M 0.1875 0 L 1535.8125 0 L 1535.8125 1023.5 L 0.1875 1023.5 Z M 0.1875 0 "/></clipPath><clipPath id="731731e242"><path d="M 321.117188 71.234375 L 628.167969 71.234375 L 628.167969 378.285156 L 321.117188 378.285156 Z M 321.117188 71.234375 "/></clipPath><clipPath id="011cb186b4"><path d="M 579 140.429688 L 1086.9375 140.429688 L 1086.9375 882.746094 L 579 882.746094 Z M 579 140.429688 "/></clipPath><clipPath id="549296a252"><path d="M 626.84375 426.613281 L 892.703125 426.613281 L 892.703125 586.972656 L 626.84375 586.972656 Z M 626.84375 426.613281 "/></clipPath></defs><g id="3d1a9a51f9"><g clip-rule="nonzero" clip-path="url(#ef6d1dcf21)"><path style=" stroke:none;fill-rule:nonzero;fill:#ffffff;fill-opacity:1;" d="M 0.1875 0 L 1535.8125 0 L 1535.8125 1023.5 L 0.1875 1023.5 Z M 0.1875 0 "/><path style=" stroke:none;fill-rule:nonzero;fill:#ffffff;fill-opacity:1;" d="M 0.1875 0 L 1535.8125 0 L 1535.8125 1023.5 L 0.1875 1023.5 Z M 0.1875 0 "/></g><g clip-rule="nonzero" clip-path="url(#731731e242)"><path style=" stroke:none;fill-rule:nonzero;fill:#ffffff;fill-opacity:1;" d="M 321.117188 71.234375 L 628.167969 71.234375 L 628.167969 378.285156 L 321.117188 378.285156 Z M 321.117188 71.234375 "/></g><path style=" stroke:none;fill-rule:nonzero;fill:#343333;fill-opacity:1;" d="M 585.382812 720.511719 C 623.171875 744.152344 667.796875 757.839844 715.5625 757.839844 C 851.332031 757.839844 961.792969 647.378906 961.792969 511.609375 C 961.792969 375.839844 851.332031 265.378906 715.5625 265.378906 C 691.164062 265.378906 667.585938 268.964844 645.316406 275.605469 L 643.988281 404.308594 C 643.839844 419.28125 636.585938 433.601562 624.605469 442.585938 L 579.898438 476.160156 Z M 585.382812 720.511719 "/><g clip-rule="nonzero" clip-path="url(#011cb186b4)"><path style=" stroke:none;fill-rule:nonzero;fill:#343333;fill-opacity:1;" d="M 715.5625 140.40625 C 686.671875 140.40625 658.539062 143.71875 631.542969 149.960938 C 640.59375 156.730469 646.414062 167.527344 646.285156 179.675781 L 645.570312 248.507812 C 667.902344 242.558594 691.351562 239.375 715.539062 239.375 C 865.648438 239.375 987.753906 361.5 987.753906 511.585938 C 987.753906 661.675781 865.628906 783.800781 715.539062 783.800781 C 668.703125 783.800781 624.585938 771.90625 586.058594 750.984375 L 587.742188 826.292969 C 587.996094 837.300781 584.980469 847.867188 579.160156 856.890625 C 621.378906 873.574219 667.394531 882.746094 715.539062 882.746094 C 920.542969 882.746094 1086.722656 716.570312 1086.722656 511.566406 C 1086.722656 306.5625 920.542969 140.40625 715.5625 140.40625 Z M 715.5625 140.40625 "/></g><path style=" stroke:none;fill-rule:nonzero;fill:#343333;fill-opacity:1;" d="M 561.953125 457.09375 L 609 421.769531 C 614.589844 417.574219 617.921875 410.996094 618.007812 403.992188 L 619.230469 284.96875 L 620.324219 179.378906 C 620.390625 173.472656 615.664062 168.644531 609.761719 168.601562 C 609.71875 168.601562 609.675781 168.601562 609.65625 168.601562 C 604.046875 168.601562 599.40625 172.945312 599.003906 178.535156 L 594.027344 268.054688 L 588.125 374.003906 C 587.53125 382.546875 581.101562 389.84375 572.601562 390.769531 C 571.925781 390.835938 571.273438 390.875 570.621094 390.875 C 561.066406 390.875 553.304688 383.242188 553.117188 373.710938 L 552.546875 327.230469 L 552.144531 294.039062 L 551.765625 262.488281 L 550.734375 178.832031 C 550.628906 173.390625 546.664062 168.558594 541.242188 167.96875 C 540.84375 167.929688 540.441406 167.90625 540.042969 167.90625 C 534.328125 167.90625 529.601562 172.417969 529.371094 178.15625 L 528.949219 190.726562 L 524.941406 312.425781 L 523.445312 357.832031 L 522.9375 373.371094 C 522.558594 382.757812 514.839844 390.179688 505.457031 390.179688 C 505.394531 390.179688 505.328125 390.179688 505.265625 390.179688 C 504.65625 390.179688 504.0625 390.136719 503.453125 390.074219 C 503.433594 390.074219 503.410156 390.074219 503.390625 390.074219 C 502.820312 390.011719 502.25 389.90625 501.679688 389.78125 C 494.109375 388.136719 488.332031 381.578125 487.953125 373.542969 L 487.59375 363.082031 L 482.679688 222.652344 L 481.097656 177.839844 C 480.824219 172.417969 476.753906 167.71875 471.355469 167.253906 C 471.039062 167.230469 470.722656 167.210938 470.40625 167.210938 C 464.566406 167.210938 459.800781 171.914062 459.734375 177.777344 L 459.0625 243.382812 L 457.417969 402.371094 C 457.417969 403.148438 457.457031 403.910156 457.523438 404.667969 C 457.542969 404.878906 457.5625 405.070312 457.585938 405.28125 C 457.667969 405.996094 457.773438 406.714844 457.945312 407.410156 C 457.984375 407.601562 458.050781 407.8125 458.089844 408 C 458.21875 408.507812 458.367188 408.992188 458.511719 409.476562 C 458.617188 409.773438 458.703125 410.089844 458.828125 410.382812 C 459.019531 410.867188 459.207031 411.351562 459.417969 411.816406 C 459.609375 412.261719 459.820312 412.683594 460.050781 413.105469 C 460.199219 413.378906 460.328125 413.632812 460.496094 413.882812 C 460.707031 414.242188 460.917969 414.601562 461.148438 414.960938 C 462.476562 416.984375 464.121094 418.796875 466.0625 420.316406 L 512.375 456.589844 C 517.519531 460.617188 520.40625 466.878906 520.132812 473.394531 L 512.5 650.5625 L 510.769531 690.628906 L 509.273438 725.445312 L 504.929688 826.273438 C 504.234375 842.363281 516.992188 855.816406 533.101562 855.984375 C 533.207031 855.984375 533.292969 855.984375 533.398438 855.984375 C 541.960938 855.984375 549.617188 852.191406 554.84375 846.199219 C 555.394531 845.566406 555.921875 844.914062 556.40625 844.238281 C 556.425781 844.195312 556.449219 844.175781 556.492188 844.132812 C 556.953125 843.480469 557.398438 842.824219 557.796875 842.152344 C 557.863281 842.066406 557.902344 841.984375 557.945312 841.878906 C 558.324219 841.246094 558.683594 840.589844 559 839.914062 C 559.085938 839.746094 559.148438 839.578125 559.230469 839.429688 C 559.507812 838.820312 559.78125 838.207031 560.035156 837.554688 C 560.140625 837.300781 560.203125 837.046875 560.308594 836.792969 C 560.496094 836.226562 560.707031 835.65625 560.855469 835.066406 C 560.960938 834.707031 561.023438 834.328125 561.109375 833.96875 C 561.234375 833.460938 561.363281 832.957031 561.445312 832.449219 C 561.53125 831.945312 561.59375 831.394531 561.65625 830.890625 C 561.699219 830.488281 561.761719 830.109375 561.804688 829.730469 C 561.867188 828.800781 561.910156 827.851562 561.890625 826.882812 L 559.0625 701.492188 L 553.9375 473.777344 C 553.707031 467.21875 556.722656 461.015625 561.953125 457.09375 Z M 561.953125 457.09375 "/><g clip-rule="nonzero" clip-path="url(#549296a252)"><path style=" stroke:none;fill-rule:nonzero;fill:#0cc0df;fill-opacity:1;" d="M 892.703125 534.472656 C 892.703125 507.144531 870.550781 484.992188 843.226562 484.992188 C 840.457031 484.992188 837.746094 485.230469 835.097656 485.667969 C 832.953125 463.082031 813.925781 445.410156 790.78125 445.410156 C 783.535156 445.410156 776.703125 447.148438 770.65625 450.21875 C 761.953125 436.058594 746.320312 426.609375 728.476562 426.609375 C 701.152344 426.609375 679 448.761719 679 476.085938 C 679 476.769531 679.023438 477.445312 679.054688 478.121094 C 650.023438 479.285156 626.84375 503.175781 626.84375 532.492188 C 626.84375 562.550781 651.207031 586.917969 681.265625 586.917969 C 681.441406 586.917969 840.164062 587.042969 843.664062 586.917969 C 870.785156 586.683594 892.703125 561.652344 892.703125 534.472656 "/></g><path style=" stroke:none;fill-rule:nonzero;fill:#000000;fill-opacity:1;" d="M 799.191406 519.039062 L 796.539062 495.648438 C 796.328125 493.386719 794.667969 492.632812 792.828125 493.964844 L 788.484375 497.050781 C 781.863281 489.9375 772.695312 485.152344 762.25 484.238281 C 743.03125 482.554688 725.761719 494.515625 720.003906 512.097656 L 731.660156 517.339844 C 736.503906 502.910156 746.601562 495.652344 761.140625 496.925781 C 767.738281 497.5 773.582031 500.347656 778.019531 504.613281 L 774.132812 507.417969 C 772.292969 508.75 772.472656 510.601562 774.535156 511.554688 L 795.839844 521.410156 C 797.898438 522.363281 799.402344 521.300781 799.191406 519.039062 "/><path style=" stroke:none;fill-rule:nonzero;fill:#000000;fill-opacity:1;" d="M 720.023438 527.902344 L 722.675781 551.292969 C 722.882812 553.554688 724.546875 554.308594 726.386719 552.980469 L 730.730469 549.894531 C 737.351562 557.003906 746.519531 561.792969 756.960938 562.707031 C 776.183594 564.386719 793.453125 552.425781 799.210938 534.847656 L 787.554688 529.601562 C 782.710938 544.035156 772.609375 551.289062 758.070312 550.019531 C 751.476562 549.441406 745.632812 546.59375 741.195312 542.332031 L 745.082031 539.519531 C 746.917969 538.191406 746.742188 536.34375 744.679688 535.390625 L 723.375 525.535156 C 721.316406 524.578125 719.8125 525.640625 720.023438 527.902344 "/></g></svg>